<mxfile host="65bd71144e">
    <diagram id="y7LyX2alFGtX07KHJ8K6" name="Page-1">
        <mxGraphModel dx="749" dy="536" grid="1" gridSize="10" guides="1" tooltips="1" connect="1" arrows="1" fold="1" page="1" pageScale="1" pageWidth="850" pageHeight="1100" math="0" shadow="0">
            <root>
                <mxCell id="0"/>
                <mxCell id="1" parent="0"/>
                <mxCell id="109" style="edgeStyle=none;html=1;entryX=0.5;entryY=0;entryDx=0;entryDy=0;" parent="1" source="111" target="108" edge="1">
                    <mxGeometry relative="1" as="geometry">
                        <mxPoint x="360" y="60" as="sourcePoint"/>
                        <Array as="points">
                            <mxPoint x="194" y="60"/>
                        </Array>
                    </mxGeometry>
                </mxCell>
                <mxCell id="110" value="isTrue«${args.milvus.clean_temp}==true»" style="edgeLabel;align=center;verticalAlign=middle;resizable=0;points=[];" parent="109" vertex="1" connectable="0">
                    <mxGeometry x="0.2838" y="-3" relative="1" as="geometry">
                        <mxPoint x="-15" y="23" as="offset"/>
                    </mxGeometry>
                </mxCell>
                <mxCell id="105" style="edgeStyle=none;html=1;entryX=0.5;entryY=0;entryDx=0;entryDy=0;" parent="1" source="3" target="83" edge="1">
                    <mxGeometry relative="1" as="geometry">
                        <Array as="points">
                            <mxPoint x="622" y="380"/>
                            <mxPoint x="530" y="380"/>
                        </Array>
                    </mxGeometry>
                </mxCell>
                <mxCell id="3" value="milvus«&quot;database.recreate&quot;;&quot;temp_${scope.room}&quot;»&#10;milvus«&quot;database.recreate&quot;;&quot;searchable&quot;»" style="rounded=1;whiteSpace=wrap;fillColor=#ffcc99;strokeColor=#36393d;fontColor=#0F0F0F;" parent="1" vertex="1">
                    <mxGeometry x="430" y="300" width="383.63" height="50" as="geometry"/>
                </mxCell>
                <mxCell id="5" value="" style="ellipse;whiteSpace=wrap;html=1;fillColor=#ffcc99;strokeColor=#36393d;fontColor=#000000;" parent="1" vertex="1">
                    <mxGeometry x="510" y="650" width="40" height="40" as="geometry"/>
                </mxCell>
                <mxCell id="117" style="edgeStyle=none;html=1;entryX=0.5;entryY=0;entryDx=0;entryDy=0;" parent="1" source="33" target="70" edge="1">
                    <mxGeometry relative="1" as="geometry">
                        <mxPoint x="530" y="540" as="targetPoint"/>
                    </mxGeometry>
                </mxCell>
                <mxCell id="33" value="milvus«&quot;collection.create&quot;;&quot;temp_${scope.room}&quot;;&quot;milvus.diarization&quot;»&#10;milvus«&quot;collection.create&quot;;&quot;searchable&quot;;&quot;milvus.intent&quot;»&#10;milvus«&quot;collection.create&quot;;&quot;searchable&quot;;&quot;milvus.faces&quot;»" style="rounded=1;whiteSpace=wrap;fillColor=#ffcc99;strokeColor=#36393d;fontColor=#000000;" parent="1" vertex="1">
                    <mxGeometry x="306" y="460" width="448" height="70" as="geometry"/>
                </mxCell>
                <mxCell id="68" style="edgeStyle=none;html=1;entryX=0.5;entryY=0;entryDx=0;entryDy=0;" parent="1" source="112" target="3" edge="1">
                    <mxGeometry relative="1" as="geometry">
                        <Array as="points">
                            <mxPoint x="460" y="200"/>
                            <mxPoint x="622" y="200"/>
                        </Array>
                        <mxPoint x="400.5001561767958" y="290.00624707183306" as="targetPoint"/>
                        <mxPoint x="460" y="160" as="sourcePoint"/>
                    </mxGeometry>
                </mxCell>
                <mxCell id="72" value="isTrue«${args.reset}==true»" style="edgeLabel;align=center;verticalAlign=middle;resizable=0;points=[];" parent="68" vertex="1" connectable="0">
                    <mxGeometry x="-0.2085" relative="1" as="geometry">
                        <mxPoint x="123" y="-10" as="offset"/>
                    </mxGeometry>
                </mxCell>
                <mxCell id="85" style="edgeStyle=none;html=1;entryX=0.5;entryY=0;entryDx=0;entryDy=0;exitX=0.5;exitY=1;exitDx=0;exitDy=0;" parent="1" source="112" target="92" edge="1">
                    <mxGeometry relative="1" as="geometry">
                        <mxPoint x="120" y="330" as="targetPoint"/>
                        <Array as="points">
                            <mxPoint x="460" y="200"/>
                            <mxPoint x="214" y="200"/>
                        </Array>
                        <mxPoint x="380" y="160" as="sourcePoint"/>
                    </mxGeometry>
                </mxCell>
                <mxCell id="86" value="isTrue«${args.reset}!=true»" style="edgeLabel;align=center;verticalAlign=middle;resizable=0;points=[];" parent="85" vertex="1" connectable="0">
                    <mxGeometry x="-0.3133" y="1" relative="1" as="geometry">
                        <mxPoint x="-134" y="-11" as="offset"/>
                    </mxGeometry>
                </mxCell>
                <mxCell id="71" style="edgeStyle=none;html=1;" parent="1" source="70" target="5" edge="1">
                    <mxGeometry relative="1" as="geometry"/>
                </mxCell>
                <mxCell id="70" value="milvus«&quot;introspect&quot;»&#10;set«&quot;scope.config_milvus&quot;;true»" style="rounded=1;whiteSpace=wrap;fillColor=#cce5ff;strokeColor=#36393d;fontColor=#000000;" parent="1" vertex="1">
                    <mxGeometry x="427.87" y="560" width="204.26" height="40" as="geometry"/>
                </mxCell>
                <mxCell id="89" style="edgeStyle=none;html=1;entryX=0.5;entryY=0;entryDx=0;entryDy=0;fontColor=#050505;" parent="1" source="83" target="33" edge="1">
                    <mxGeometry relative="1" as="geometry">
                        <Array as="points">
                            <mxPoint x="530" y="430"/>
                        </Array>
                    </mxGeometry>
                </mxCell>
                <mxCell id="83" value="" style="ellipse;whiteSpace=wrap;html=1;fillColor=#eeeeee;strokeColor=#36393d;" parent="1" vertex="1">
                    <mxGeometry x="510" y="400" width="40" height="40" as="geometry"/>
                </mxCell>
                <mxCell id="88" value="2.2. Alternativelly&#10;erase &amp; create&#10;Milvus databases" style="rounded=0;whiteSpace=wrap;fillColor=#ffff88;strokeColor=#36393d;fontColor=#050505;align=center;verticalAlign=middle;spacingLeft=6;" parent="1" vertex="1">
                    <mxGeometry x="632.13" y="230" width="210" height="60" as="geometry"/>
                </mxCell>
                <mxCell id="93" style="edgeStyle=none;html=1;fontColor=#050505;" parent="1" source="92" target="83" edge="1">
                    <mxGeometry relative="1" as="geometry">
                        <mxPoint x="530" y="400" as="targetPoint"/>
                        <Array as="points">
                            <mxPoint x="213" y="380"/>
                            <mxPoint x="530" y="380"/>
                        </Array>
                    </mxGeometry>
                </mxCell>
                <mxCell id="92" value="milvus«&quot;database.create&quot;;&quot;temp_${scope.room}&quot;»&#10;milvus«&quot;database.create&quot;;&quot;searchable&quot;»" style="rounded=1;whiteSpace=wrap;fillColor=#ffcc99;strokeColor=#36393d;fontColor=#0F0F0F;" parent="1" vertex="1">
                    <mxGeometry x="50" y="300" width="327.87" height="50" as="geometry"/>
                </mxCell>
                <mxCell id="94" value="2.1. Alternativelly assure:&#10;Milvus databases" style="rounded=0;whiteSpace=wrap;fillColor=#ffff88;strokeColor=#36393d;fontColor=#050505;align=center;verticalAlign=middle;spacingLeft=6;" parent="1" vertex="1">
                    <mxGeometry x="230" y="230" width="170" height="60" as="geometry"/>
                </mxCell>
                <mxCell id="95" value="3. Configure Milvus&#10;Collections and Indexes" style="rounded=0;whiteSpace=wrap;fillColor=#ffff88;strokeColor=#36393d;fontColor=#050505;align=center;verticalAlign=middle;spacingLeft=6;" parent="1" vertex="1">
                    <mxGeometry x="118.44" y="455" width="170" height="60" as="geometry"/>
                </mxCell>
                <mxCell id="115" style="edgeStyle=none;html=1;" parent="1" source="108" target="112" edge="1">
                    <mxGeometry relative="1" as="geometry"/>
                </mxCell>
                <mxCell id="108" value="milvus«&quot;database.destroy_temp&quot;»" style="rounded=1;whiteSpace=wrap;fillColor=#ffcc99;strokeColor=#36393d;fontColor=#0F0F0F;" parent="1" vertex="1">
                    <mxGeometry x="61.07" y="125" width="267.87" height="30" as="geometry"/>
                </mxCell>
                <mxCell id="113" style="edgeStyle=none;html=1;" parent="1" source="111" target="112" edge="1">
                    <mxGeometry relative="1" as="geometry"/>
                </mxCell>
                <mxCell id="114" value="isTrue«${args.milvus.clean_temp}!=true»" style="edgeLabel;align=center;verticalAlign=middle;resizable=0;points=[];" parent="113" vertex="1" connectable="0">
                    <mxGeometry x="-0.4957" relative="1" as="geometry">
                        <mxPoint as="offset"/>
                    </mxGeometry>
                </mxCell>
                <mxCell id="111" value="start" style="ellipse;whiteSpace=wrap;html=1;fillColor=#b0e3e6;strokeColor=#0e8088;fontColor=#050505;" parent="1" vertex="1">
                    <mxGeometry x="440" y="40" width="40" height="40" as="geometry"/>
                </mxCell>
                <mxCell id="112" value="" style="ellipse;whiteSpace=wrap;html=1;fillColor=#eeeeee;strokeColor=#36393d;" parent="1" vertex="1">
                    <mxGeometry x="440" y="120" width="40" height="40" as="geometry"/>
                </mxCell>
                <mxCell id="116" value="1. Alternativelly&#10;erase temp old&#10;databases" style="rounded=0;whiteSpace=wrap;fillColor=#ffff88;strokeColor=#36393d;fontColor=#050505;align=center;verticalAlign=middle;spacingLeft=6;" parent="1" vertex="1">
                    <mxGeometry x="590" y="65" width="170" height="60" as="geometry"/>
                </mxCell>
            </root>
        </mxGraphModel>
    </diagram>
</mxfile>